<?xml version="1.0" encoding="UTF-8" standalone="no"?>
<!-- Created with Inkscape (http://www.inkscape.org/) -->

<svg
   width="210mm"
   height="297mm"
   viewBox="0 0 210 297"
   version="1.1"
   id="svg1"
   xml:space="preserve"
   inkscape:version="1.4.4 (dcaf3e7d9e, 2026-05-05)"
   sodipodi:docname="yakoon-master-source.svg"
   xmlns:inkscape="http://www.inkscape.org/namespaces/inkscape"
   xmlns:sodipodi="http://sodipodi.sourceforge.net/DTD/sodipodi-0.dtd"
   xmlns:xlink="http://www.w3.org/1999/xlink"
   xmlns="http://www.w3.org/2000/svg"
   xmlns:svg="http://www.w3.org/2000/svg"><sodipodi:namedview
     id="namedview1"
     pagecolor="#ffffff"
     bordercolor="#000000"
     borderopacity="0.25"
     inkscape:showpageshadow="2"
     inkscape:pageopacity="0.0"
     inkscape:pagecheckerboard="0"
     inkscape:deskcolor="#d1d1d1"
     inkscape:document-units="mm"
     inkscape:zoom="1.0393815"
     inkscape:cx="379.07159"
     inkscape:cy="427.65818"
     inkscape:window-width="1920"
     inkscape:window-height="1011"
     inkscape:window-x="0"
     inkscape:window-y="0"
     inkscape:window-maximized="1"
     inkscape:current-layer="layer4"
     inkscape:export-bgcolor="#ffffffff" /><defs
     id="defs1"><linearGradient
       id="linearGradient4392"
       inkscape:collect="always"><stop
         style="stop-color:#dfa659;stop-opacity:1;"
         offset="0.16466583"
         id="stop4393" /><stop
         style="stop-color:#ffffff;stop-opacity:1"
         offset="0.62232536"
         id="stop4394" /></linearGradient><linearGradient
       id="linearGradient4390"
       inkscape:collect="always"><stop
         style="stop-color:#de9e53;stop-opacity:1;"
         offset="0.45788574"
         id="stop4391" /><stop
         style="stop-color:#fcfcfc;stop-opacity:1;"
         offset="0.88835317"
         id="stop4392" /></linearGradient><linearGradient
       id="swatch4380"
       inkscape:swatch="solid"><stop
         style="stop-color:#000f22;stop-opacity:1;"
         offset="0"
         id="stop4381" /></linearGradient><linearGradient
       inkscape:collect="always"
       xlink:href="#linearGradient4390"
       id="linearGradient4391"
       x1="52.2244"
       y1="90.411781"
       x2="30.50964"
       y2="72.334427"
       gradientUnits="userSpaceOnUse"
       spreadMethod="reflect"
       gradientTransform="translate(71.96548,-24.250117)" /><linearGradient
       inkscape:collect="always"
       xlink:href="#linearGradient4392"
       id="linearGradient4394"
       x1="111.47896"
       y1="91.436035"
       x2="99.15522"
       y2="122.75603"
       gradientUnits="userSpaceOnUse"
       gradientTransform="translate(20.219915,-85.184319)" /><linearGradient
       inkscape:collect="always"
       xlink:href="#linearGradient4390"
       id="linearGradient4400"
       gradientUnits="userSpaceOnUse"
       gradientTransform="translate(72.07798,-24.160117)"
       x1="52.224442"
       y1="90.412567"
       x2="25.418427"
       y2="76.661133"
       spreadMethod="reflect" /></defs><g
     inkscape:groupmode="layer"
     id="layer2"
     inkscape:label="Background"
     style="display:inline"
     sodipodi:insensitive="true"><rect
       style="fill:#010f22;fill-opacity:1;fill-rule:evenodd;stroke-width:0.264583"
       id="rect4400"
       width="193.46442"
       height="163.93564"
       x="9.1385221"
       y="8.1932917"
       ry="10.35"
       inkscape:label="blue" /></g><g
     inkscape:groupmode="layer"
     id="layer4"
     inkscape:label="Text"
     transform="translate(3.6190806,5.3457274)"><text
       xml:space="preserve"
       style="font-style:italic;font-variant:normal;font-weight:normal;font-stretch:normal;font-size:8.01483px;line-height:0;font-family:'Exo 2';-inkscape-font-specification:'Exo 2 Italic';text-align:center;writing-mode:lr-tb;direction:ltr;text-anchor:middle;fill:#de9e53;fill-opacity:1;stroke:#000000;stroke-width:2.67161e-08;stroke-dasharray:none;stroke-opacity:0;paint-order:fill markers stroke"
       x="85.307213"
       y="162.02567"
       id="text4409"
       inkscape:label="runtime"
       transform="scale(1.1884214,0.84145236)"><tspan
         sodipodi:role="line"
         id="tspan4409"
         style="font-style:italic;font-variant:normal;font-weight:500;font-stretch:normal;font-size:8.01483px;line-height:0ex;font-family:'Exo 2';-inkscape-font-specification:'Exo 2 Medium Italic';fill:#de9e53;fill-opacity:1;stroke-width:2.67161e-08"
         x="86.581055"
         y="162.02567">── R  U  N  T  I  M  E ── </tspan></text><text
       xml:space="preserve"
       style="font-style:italic;font-variant:normal;font-weight:normal;font-stretch:normal;font-size:25.3071px;line-height:0.1;font-family:'Exo 2';-inkscape-font-specification:'Exo 2 Italic';writing-mode:lr-tb;direction:ltr;fill:#ffffff;fill-opacity:0;stroke:#000000;stroke-width:2.53071e-08;stroke-dasharray:none;stroke-opacity:0;paint-order:fill markers stroke"
       x="39.571846"
       y="152.59839"
       id="text4408"
       inkscape:label="yakoon"
       transform="scale(1.2545869,0.79707511)"><tspan
         sodipodi:role="line"
         id="tspan4408"
         style="font-style:normal;font-variant:normal;font-weight:500;font-stretch:normal;font-size:25.3071px;line-height:0.1;font-family:'Exo 2';-inkscape-font-specification:'Exo 2 Medium';fill:#ffffff;fill-opacity:1;stroke-width:2.53071e-08"
         x="39.571846"
         y="152.59839">yakoon</tspan></text></g><g
     inkscape:groupmode="layer"
     id="layer1"
     inkscape:label="Yak"
     transform="translate(-27.437048,20.873792)"
     style="display:inline"><g
       id="g4395"
       inkscape:label="left"
       transform="translate(-9.4559415,-14.76439)"><path
         style="fill:#ffffff;fill-opacity:1"
         d="m 119.43627,64.575147 c -0.69454,-0.78903 -1.23356,-1.79177 -1.61223,-2.99925 -0.73579,-2.346175 -0.93927,-3.79831 -0.71408,-3.79831 0.0983,0 1.31498,0.62508 2.70365,1.38906 2.61882,1.37589 4.87871,3.161057 6.2604,5.80834 0.51441,1.02824 0.93529,2.03213 0.93529,2.23086 -0.12836,0.370899 -5.13782,0.135845 -7.57303,-2.6307 z"
         id="path4346"
         sodipodi:nodetypes="sssssss"
         inkscape:label="eye" /><path
         style="fill:url(#linearGradient4391)"
         d="m 118.63584,88.770833 c -0.79636,-0.97339 -1.93443,-2.57059 -2.52904,-3.54934 -0.59461,-0.97875 -1.08111,-1.90076 -1.08111,-2.04891 0,-0.14815 -0.10098,-0.26936 -0.2244,-0.26936 -0.12342,0 -0.44528,0.48982 -0.71524,1.08848 l -0.49084,1.08849 -0.59925,-0.75154 c -0.32958,-0.41334 -1.20388,-1.84296 -1.94287,-3.17692 -0.73899,-1.33395 -1.68827,-3.32042 -2.10951,-4.41437 -0.42124,-1.09395 -0.9515,-2.88757 -1.17835,-3.98583 -0.22685,-1.09826 -0.41246,-3.0484 -0.41246,-4.33365 0,-1.28525 0.17564,-2.98691 0.39032,-3.78147 0.21467,-0.79456 0.46668,-1.71254 0.56002,-2.03996 0.14961,-0.52479 0.0737,-0.59532 -0.64124,-0.59532 -0.44602,0 -1.79936,-0.30807 -3.00742,-0.68461 -1.20806,-0.37654 -2.85131,-1.04836 -3.65168,-1.49292 -0.80036,-0.44457 -2.11005,-1.31594 -2.91041,-1.936381 -0.80037,-0.620445 -1.95137,-1.645273 -2.557779,-2.277396 -0.606412,-0.632123 -1.707741,-2.033718 -2.447396,-3.114656 -0.739655,-1.080938 -1.34492,-2.092969 -1.345032,-2.248958 -1.36e-4,-0.188028 0.83497,-0.253126 2.477796,-0.193149 2.088731,0.07626 3.013551,-0.04127 5.887181,-0.748144 2.15602,-0.530351 4.08998,-0.840432 5.26127,-0.843562 1.28185,-0.0034 2.34086,0.177977 3.43958,0.589182 0.87313,0.326773 2.21258,0.991609 2.97656,1.477412 0.76399,0.485804 1.38907,0.927699 1.38907,0.981989 0,0.05429 -1.10133,0.04118 -2.4474,-0.02914 -1.7732,-0.09263 -2.92115,-0.0065 -4.16719,0.31265 -0.94588,0.242272 -2.35106,0.729362 -3.12262,1.082422 -1.19619,0.547371 -1.36529,0.712073 -1.14797,1.118138 0.14017,0.261916 0.88806,1.109408 1.66196,1.883315 0.77391,0.773908 2.07121,1.796326 2.88289,2.272035 0.81169,0.47572 2.06429,1.05489 2.78358,1.28706 0.71928,0.23216 1.74387,0.498775 2.27687,0.59248 l 0.96907,0.17037 -0.76476,1.61709 c -0.42062,0.889403 -0.96245,2.505663 -1.20407,3.591683 -0.33593,1.50997 -0.40469,2.7267 -0.2922,5.17083 0.0988,2.14593 0.3284,3.77264 0.69882,4.95034 0.30344,0.96477 0.79286,2.29929 1.08761,2.96561 0.29474,0.66631 0.6407,1.27625 0.7688,1.35542 0.1281,0.0792 0.63715,-0.59272 1.13122,-1.4931 0.49407,-0.90038 1.02476,-1.6792 1.17931,-1.73072 0.15455,-0.0515 0.36228,0.41695 0.46162,1.04104 0.0993,0.6241 0.34265,1.61097 0.54069,2.19305 0.19803,0.58208 0.59722,1.65364 0.88707,2.38125 0.28985,0.7276 0.91222,2.15127 1.38304,3.16371 0.47083,1.01243 1.21876,2.44118 1.66207,3.175 0.44331,0.73381 1.2954,1.98905 1.89353,2.78941 0.59812,0.800373 1.17865,1.604043 1.29006,1.785943 0.11141,0.1819 0.14552,0.33073 0.0758,0.33073 -2.03493,-1.34169 -2.86801,-2.481223 -5.02557,-4.715723 z"
         id="path4343"
         sodipodi:nodetypes="ssssscsssssssssssssssscssssssssssscsscsscsscssssssss"
         inkscape:label="ear" /><path
         d="m 143.03182,70.148759 c -1.78327,-2.392801 -4.36434,-4.226257 -7.07245,-5.157472 0.48443,5.112818 1.00146,7.503069 -0.64759,12.425183 -0.57589,1.718925 -5.46453,6.094514 -7.2384,9.608094 -0.65466,1.2967 -1.55951,4.76511 0.1504,7.94711 3.0675,5.988956 9.05913,5.120956 14.80804,5.028326 z m -9.66303,23.525195 c -1.2076,-1.284638 -2.32009,-4.014476 -1.00819,-5.1924 1.31426,-1.180031 3.79526,0.332781 5.06326,1.56237 1.29943,1.260056 2.98995,3.809127 1.75992,5.13702 -1.36071,1.468984 -4.44352,-0.04804 -5.81499,-1.50699 z"
         style="fill:#ffffff;fill-opacity:1"
         id="path1"
         sodipodi:nodetypes="ccsssccaaaaa"
         inkscape:label="nose" /><g
         id="g4366"
         transform="translate(6.1200001,3.96)"
         inkscape:label="norn"
         inkscape:transform-center-x="11.836968"
         inkscape:transform-center-y="-0.38183766"><path
           d="m 86.44464,18.007607 c -2.08525,9.796721 2.32041,17.471814 17.16277,25.308013 17.97167,9.48836 24.67122,18.314465 25.4285,30.513045 0.001,-0.0144 2.86013,-4.406659 0.56736,-12.514314 C 127.3105,53.206696 121.28329,48.80416 105.82778,40.492766 90.30697,32.14626 86.6604,20.674324 86.44464,18.007607 Z"
           style="fill:#dfa659"
           id="path4373"
           sodipodi:nodetypes="csczsc"
           inkscape:label="bottom" /><path
           d="m 95.58981,4.395001 c -0.26798,9.64e-4 -0.93439,0.528155 -2.01331,1.573031 -4.96975,4.812927 -7.45748,9.849549 -7.55044,14.815633 0.0769,-0.906931 0.21758,-1.831746 0.41858,-2.776058 0.21576,2.666717 1.040349,13.565348 16.56116,21.911858 15.45551,8.31139 23.62367,13.052606 27.46914,27.073316 0.5725,-10.9059 -9.08788,-29.782023 -23.38402,-34.981894 C 92.7908,26.809569 88.69989,18.356735 94.84205,6.703388 95.65624,5.158648 95.91324,4.393839 95.58981,4.395001 Z"
           style="fill:#f3c078;fill-opacity:1"
           id="path4374"
           sodipodi:nodetypes="ssccscsss"
           inkscape:label="top" /></g></g><path
       d="m 134.40659,43.602014 c 1.53279,-6.80833 4.54827,-13.019462 8.89536,-18.32184 l 0.70451,-0.85933 -1.68713,0.16528 -1.68712,0.16529 1.19062,-1.25976 c 1.63276,-1.727583 5.36242,-4.11065 8.07421,-5.15905 1.23945,-0.47918 2.21364,-0.91113 2.16488,-0.9599 -0.0488,-0.0488 -1.01766,-0.21787 -2.15309,-0.3758 -2.28173,-0.31736 -4.69127,-0.0411 -7.21501,0.82718 -1.98748,0.68379 -1.86372,0.15307 0.51807,-2.22171 1.36724,-1.36322 2.4673,-2.17653 3.82978,-2.83147 1.05133,-0.50539 1.91453,-0.9963 1.91822,-1.09093 0.0156,-0.39972 -2.96393,-0.87645 -5.41727,-0.86679 -3.61315,0.0142 -6.61076,0.996382 -10.16216,3.32951 l -0.90176,0.59242 0.1819,-0.72472 c 0.47541,-1.894131 1.39335,-3.80834 2.57487,-5.3693396 0.71263,-0.94152 1.29569,-1.76507 1.29569,-1.83013 0,-0.2998 -3.2672,-0.0572 -5.30781,0.39416 -4.30249,0.95161 -7.57177,2.65169 -10.60896,5.5168296 -1.61709,1.52547 -3.92697,4.52408 -3.92697,5.09784 0,0.12039 1.3674,-0.42361 3.03868,-1.2089 2.67206,-1.25553 6.06542,-2.50987 6.78992,-2.50987 0.13633,0 -0.0494,0.50726 -0.41275,1.12725 -1.01938,1.73945 -1.98661,4.531311 -2.30012,6.63925 l -0.28431,1.91158 1.43419,2.10627 c 3.53778,5.195625 6.20932,11.44258 7.88966,18.44872 0.34087,1.42127 0.69817,2.4333 0.794,2.24896 0.0958,-0.18434 0.44228,-1.52579 0.7699,-2.981 z"
       style="fill:url(#linearGradient4394)"
       id="path1-7"
       sodipodi:nodetypes="sscccsssssssssscsssssssssscssss"
       inkscape:label="hair" /><g
       id="g4400"
       inkscape:label="right"
       transform="matrix(-1,0,0,1,276.34803,-14.85439)"><path
         style="fill:#ffffff;fill-opacity:1"
         d="m 119.54877,64.665147 c -0.69454,-0.78903 -1.23356,-1.79177 -1.61223,-2.99925 -0.73579,-2.346175 -0.93927,-3.79831 -0.71408,-3.79831 0.0983,0 1.31498,0.62508 2.70365,1.38906 2.61882,1.37589 4.87871,3.161057 6.2604,5.80834 0.51441,1.02824 0.93529,2.03213 0.93529,2.23086 -0.12836,0.370899 -5.13782,0.135845 -7.57303,-2.6307 z"
         id="path4395"
         sodipodi:nodetypes="sssssss"
         inkscape:label="eye" /><path
         style="fill:url(#linearGradient4400)"
         d="m 118.74834,88.860833 c -0.79636,-0.97339 -1.93443,-2.57059 -2.52904,-3.54934 -0.59461,-0.97875 -1.08111,-1.90076 -1.08111,-2.04891 0,-0.14815 -0.10098,-0.26936 -0.2244,-0.26936 -0.12342,0 -0.44528,0.48982 -0.71524,1.08848 l -0.49084,1.08849 -0.59925,-0.75154 c -0.32958,-0.41334 -1.20388,-1.84296 -1.94287,-3.17692 -0.73899,-1.33395 -1.68827,-3.32042 -2.10951,-4.41437 -0.42124,-1.09395 -0.9515,-2.88757 -1.17835,-3.98583 -0.22685,-1.09826 -0.41246,-3.0484 -0.41246,-4.33365 0,-1.28525 0.17564,-2.98691 0.39032,-3.78147 0.21467,-0.79456 0.46668,-1.71254 0.56002,-2.03996 0.14961,-0.52479 0.0737,-0.59532 -0.64124,-0.59532 -0.44602,0 -1.79936,-0.30807 -3.00742,-0.68461 -1.20806,-0.37654 -2.85131,-1.04836 -3.65168,-1.49292 -0.80036,-0.44457 -2.11005,-1.31594 -2.91041,-1.936381 -0.80037,-0.620445 -1.95137,-1.645273 -2.557779,-2.277396 -0.606412,-0.632123 -1.707741,-2.033718 -2.447396,-3.114656 -0.739655,-1.080938 -1.34492,-2.092969 -1.345032,-2.248958 -1.36e-4,-0.188028 0.83497,-0.253126 2.477796,-0.193149 2.088731,0.07626 3.013551,-0.04127 5.887181,-0.748144 2.15602,-0.530351 4.08998,-0.840432 5.26127,-0.843562 1.28185,-0.0034 2.34086,0.177977 3.43958,0.589182 0.87313,0.326773 2.21258,0.991609 2.97656,1.477412 0.76399,0.485804 1.38907,0.927699 1.38907,0.981989 0,0.05429 -1.10133,0.04118 -2.4474,-0.02914 -1.7732,-0.09263 -2.92115,-0.0065 -4.16719,0.31265 -0.94588,0.242272 -2.35106,0.729362 -3.12262,1.082422 -1.19619,0.547371 -1.36529,0.712073 -1.14797,1.118138 0.14017,0.261916 0.88806,1.109408 1.66196,1.883315 0.77391,0.773908 2.07121,1.796326 2.88289,2.272035 0.81169,0.47572 2.06429,1.05489 2.78358,1.28706 0.71928,0.23216 1.74387,0.498775 2.27687,0.59248 l 0.96907,0.17037 -0.76476,1.61709 c -0.42062,0.889403 -0.96245,2.505663 -1.20407,3.591683 -0.33593,1.50997 -0.40469,2.7267 -0.2922,5.17083 0.0988,2.14593 0.3284,3.77264 0.69882,4.95034 0.30344,0.96477 0.79286,2.29929 1.08761,2.96561 0.29474,0.66631 0.6407,1.27625 0.7688,1.35542 0.1281,0.0792 0.63715,-0.59272 1.13122,-1.4931 0.49407,-0.90038 1.02476,-1.6792 1.17931,-1.73072 0.15455,-0.0515 0.36228,0.41695 0.46162,1.04104 0.0993,0.6241 0.34265,1.61097 0.54069,2.19305 0.19803,0.58208 0.59722,1.65364 0.88707,2.38125 0.28985,0.7276 0.91222,2.15127 1.38304,3.16371 0.47083,1.01243 1.21876,2.44118 1.66207,3.175 0.44331,0.73381 1.2954,1.98905 1.89353,2.78941 0.59812,0.800373 1.17865,1.604043 1.29006,1.785943 0.11141,0.1819 0.14552,0.33073 0.0758,0.33073 -2.03493,-1.34169 -2.86801,-2.481223 -5.02557,-4.715723 z"
         id="path4396"
         sodipodi:nodetypes="ssssscsssssssssssssssscssssssssssscsscsscsscssssssss"
         inkscape:label="ear" /><path
         d="m 143.14432,70.238759 c -1.78327,-2.392801 -4.36434,-4.226257 -7.07245,-5.157472 0.48443,5.112818 1.00146,7.503069 -0.64759,12.425183 -0.57589,1.718925 -5.46453,6.094514 -7.2384,9.608094 -0.65466,1.2967 -1.55951,4.76511 0.1504,7.94711 3.0675,5.988956 9.05913,5.120956 14.80804,5.028326 z m -9.66303,23.525195 c -1.2076,-1.284638 -2.32009,-4.014476 -1.00819,-5.1924 1.31426,-1.180031 3.79526,0.332781 5.06326,1.56237 1.29943,1.260056 2.98995,3.809127 1.75992,5.13702 -1.36071,1.468984 -4.44352,-0.04804 -5.81499,-1.50699 z"
         style="fill:#ffffff;fill-opacity:1;stroke:#000000;stroke-width:3e-08;stroke-dasharray:none;stroke-opacity:0;paint-order:fill markers stroke"
         id="path4397"
         sodipodi:nodetypes="ccsssccaaaaa"
         inkscape:label="nose" /><g
         id="g4399"
         transform="translate(6.2325001,4.05)"
         inkscape:label="norn"
         inkscape:transform-center-x="11.836968"
         inkscape:transform-center-y="-0.38183766"><path
           d="m 86.44464,18.007607 c -2.08525,9.796721 2.32041,17.471814 17.16277,25.308013 17.97167,9.48836 24.67122,18.314465 25.4285,30.513045 0.001,-0.0144 2.86013,-4.406659 0.56736,-12.514314 C 127.3105,53.206696 121.28329,48.80416 105.82778,40.492766 90.30697,32.14626 86.6604,20.674324 86.44464,18.007607 Z"
           style="fill:#dfa659"
           id="path4398"
           sodipodi:nodetypes="csczsc"
           inkscape:label="bottom" /><path
           d="m 95.58981,4.395001 c -0.26798,9.64e-4 -0.93439,0.528155 -2.01331,1.573031 -4.96975,4.812927 -7.45748,9.849549 -7.55044,14.815633 0.0769,-0.906931 0.21758,-1.831746 0.41858,-2.776058 0.21576,2.666717 1.040349,13.565348 16.56116,21.911858 15.45551,8.31139 23.62367,13.052606 27.46914,27.073316 0.5725,-10.9059 -9.08788,-29.782023 -23.38402,-34.981894 C 92.7908,26.809569 88.69989,18.356735 94.84205,6.703388 95.65624,5.158648 95.91324,4.393839 95.58981,4.395001 Z"
           style="fill:#f3c078;fill-opacity:1"
           id="path4399"
           sodipodi:nodetypes="ssccscsss"
           inkscape:label="top" /></g></g></g></svg>
